Coordinates
version=1
nRows=24
nColumns=22
inDegrees=yes

Units are S.I. units (second, meters, Newtons, ...)
If the header above contains a line with 'inDegrees', this indicates whether rotational values are in degrees (yes) or radians (no).

endheader
time	pelvis_tilt	pelvis_list	pelvis_rotation	pelvis_tx	pelvis_ty	pelvis_tz	hip_flexion_r	hip_adduction_r	hip_rotation_r	knee_angle_r	ankle_angle_r	subtalar_angle_r	hip_flexion_l	hip_adduction_l	hip_rotation_l	knee_angle_l	ankle_angle_l	subtalar_angle_l	lumbar_extension	lumbar_bending	lumbar_rotation
      3.94000000	      0.01692976	      8.14485518	    -91.95068232	      0.39848370	      0.97500096	      1.09776453	     24.02205501	     -1.83709748	     -1.37042545	    -63.31859383	      8.60908818	     -6.94725195	     28.88875916	      2.60017299	     -1.63745904	    -27.56344503	     13.33012699	     -1.73526988	      0.93403107	      0.94511515	      5.19383720
      3.95000000	      0.12029924	      8.17406327	    -92.09020508	      0.39965146	      0.97569926	      1.10148716	     24.72750432	     -2.09542554	     -1.39087199	    -63.36101848	      9.32645081	     -7.46104659	     28.52278742	      2.75183662	     -1.77232419	    -27.27782918	     13.41825259	     -1.83144874	      0.88899736	      0.84535515	      4.99023363
      3.96000000	      0.15717387	      8.21643810	    -92.21885350	      0.40065652	      0.97637532	      1.10504424	     25.39899085	     -2.21773778	     -1.39592776	    -63.22115997	     10.03474500	     -7.95731301	     28.18679254	      2.82795811	     -1.87560805	    -27.00762794	     13.55336845	     -1.96114654	      0.84910361	      0.80883066	      4.78306001
      3.97000000	      0.11806282	      8.25384771	    -92.31253524	      0.40154798	      0.97706339	      1.10848904	     25.99997936	     -2.22369609	     -1.43960258	    -62.89646283	     10.78567847	     -8.10997315	     27.86480556	      2.82621337	     -1.95295094	    -26.76317445	     13.71081971	     -2.00171243	      0.80142549	      0.84523325	      4.57569771
      3.98000000	      0.09135448	      8.30931496	    -92.39146996	      0.40236840	      0.97769322	      1.11181105	     26.57922967	     -2.21265063	     -1.49410638	    -62.43232623	     11.53795033	     -8.20330457	     27.56892008	      2.83399353	     -2.03395198	    -26.51192782	     13.83364939	     -2.05883213	      0.77613670	      0.85759560	      4.36204217
      3.99000000	      0.05586390	      8.37632374	    -92.44193481	      0.40314160	      0.97827157	      1.11504202	     27.11275802	     -2.17652629	     -1.58622709	    -61.81878706	     12.30642058	     -8.16635317	     27.29978349	      2.83475565	     -2.10896223	    -26.27420096	     13.95315829	     -2.13795337	      0.77022799	      0.86883832	      4.15440709
      4.00000000	     -0.00690073	      8.44135641	    -92.46030574	      0.40386495	      0.97881579	      1.11815619	     27.58993615	     -2.08985965	     -1.69198428	    -61.07722178	     13.09214491	     -7.69775011	     27.04065508	      2.81808960	     -2.12571338	    -26.04596235	     14.07609252	     -2.27998805	      0.75863374	      0.90439993	      3.90777251
      4.01000000	     -0.08664722	      8.48575674	    -92.47187899	      0.40452447	      0.97935679	      1.12121029	     27.98068697	     -1.97578202	     -1.82855884	    -60.20040854	     13.86760882	     -7.23779615	     26.77206629	      2.77620527	     -2.16133088	    -25.83529786	     14.21284113	     -2.32263453	      0.72770216	      0.95298415	      3.70462536
      4.02000000	     -0.17231528	      8.52055997	    -92.46586007	      0.40515910	      0.97987559	      1.12420669	     28.29902710	     -1.85797504	     -1.99738238	    -59.20737010	     14.62643548	     -6.69550770	     26.50210242	      2.73332481	     -2.17204040	    -25.63339628	     14.34320918	     -2.35966571	      0.69234166	      1.00370671	      3.52254754
      4.03000000	     -0.26213955	      8.54156436	    -92.44357157	      0.40577569	      0.98037884	      1.12715035	     28.54079792	     -1.74610186	     -2.20243346	    -58.11005365	     15.35365176	     -6.13228820	     26.22774480	      2.68999260	     -2.17052878	    -25.44316857	     14.47673486	     -2.39190680	      0.64688914	      1.05551490	      3.35828392
      4.04000000	     -0.35208693	      8.55022045	    -92.40995153	      0.40638995	      0.98085940	      1.13004953	     28.70941578	     -1.65238395	     -2.44869322	    -56.92371255	     16.05343472	     -5.62787426	     25.95308111	      2.65008222	     -2.15960852	    -25.27028490	     14.61634459	     -2.42030720	      0.59493367	      1.10822726	      3.20880403
      4.05000000	     -0.43770373	      8.54658498	    -92.37358029	      0.40699863	      0.98132975	      1.13291683	     28.80929132	     -1.57918499	     -2.72061730	    -55.66405701	     16.72525886	     -5.17693229	     25.66914947	      2.61838151	     -2.12972074	    -25.10095477	     14.74837137	     -2.44759662	      0.54055332	      1.15813274	      3.08486953
      4.06000000	     -0.51588243	      8.53435635	    -92.32582338	      0.40761555	      0.98177838	      1.13574218	     28.84930033	     -1.54021185	     -3.03665697	    -54.34814732	     17.37880828	     -4.83334523	     25.38794006	      2.59787259	     -2.09653629	    -24.94696873	     14.88089288	     -2.47383587	      0.48606356	      1.19851576	      2.98277357
      4.07000000	     -0.58569791	      8.50844366	    -92.28134501	      0.40823219	      0.98223324	      1.13854106	     28.82603178	     -1.52340449	     -3.36640392	    -52.98580057	     18.01136567	     -4.57174719	     25.08817413	      2.58983185	     -2.04093889	    -24.78155291	     15.00216758	     -2.50047735	      0.42753604	      1.23469806	      2.89312992
      4.08000000	     -0.64325512	      8.48263215	    -92.23020457	      0.40885992	      0.98265154	      1.14129467	     28.76428391	     -1.54247696	     -3.73572596	    -51.59925393	     18.63560211	     -4.46303293	     24.80019816	      2.59509557	     -1.99296200	    -24.62991882	     15.12316131	     -2.52360378	      0.37999524	      1.25936483	      2.82022880
      4.09000000	     -0.68702141	      8.47049611	    -92.17170788	      0.40949431	      0.98299815	      1.14398768	     28.68961812	     -1.59512219	     -4.14457656	    -50.21202089	     19.25273937	     -4.49915271	     24.54510878	      2.61288869	     -1.96303773	    -24.50218323	     15.25154187	     -2.53915144	      0.35789350	      1.27191263	      2.75470032
      4.10000000	     -0.72750893	      8.45085805	    -92.11537555	      0.41008959	      0.98334550	      1.14663628	     28.57415943	     -1.64646137	     -4.55238272	    -48.81408598	     19.83355790	     -4.65373110	     24.27956777	      2.63269283	     -1.92087809	    -24.36507892	     15.37158210	     -2.54994103	      0.33648026	      1.28176298	      2.69559030
      4.11000000	     -0.76140532	      8.44144872	    -92.06618193	      0.41062202	      0.98365056	      1.14921035	     28.44930504	     -1.68918878	     -4.94266396	    -47.42542974	     20.37356066	     -4.91494452	     24.03177878	      2.65074246	     -1.88957624	    -24.23150955	     15.49076899	     -2.55454331	      0.33194943	      1.28352680	      2.65423362
      4.12000000	     -0.79497385	      8.44074513	    -92.03616449	      0.41104427	      0.98393195	      1.15170200	     28.31564696	     -1.69202422	     -5.26811060	    -46.04662929	     20.84492271	     -5.28430905	     23.79178987	      2.65724115	     -1.85522422	    -24.08825106	     15.59691620	     -2.55052226	      0.34060731	      1.28160120	      2.64592949
      4.13000000	     -0.82507655	      8.48472379	    -92.01423987	      0.41138013	      0.98409663	      1.15407019	     28.22295726	     -1.66423318	     -5.53331656	    -44.69959296	     21.30258819	     -5.56420451	     23.62676668	      2.65182674	     -1.85869812	    -23.98138906	     15.71728650	     -2.54088195	      0.39929108	      1.27519631	      2.65680869
      4.14000000	     -0.85929678	      8.55526871	    -92.00826597	      0.41159992	      0.98418945	      1.15632622	     28.15197875	     -1.58316550	     -5.70278056	    -43.38743511	     21.71842464	     -5.73045730	     23.50627540	      2.62450114	     -1.89312618	    -23.89401270	     15.84514030	     -2.53008491	      0.48633729	      1.27037483	      2.69301506
      4.15000000	     -0.86928167	      8.67214856	    -92.02755191	      0.41169873	      0.98418844	      1.15845301	     28.13264578	     -1.46799923	     -5.73215117	    -42.12319499	     22.10549135	     -5.76767754	     23.43889134	      2.60926259	     -1.92527087	    -23.79975188	     15.92623206	     -2.52440973	      0.62429064	      1.23147475	      2.77243207
      4.16000000	     -0.93879782	      8.76012588	    -92.04040167	      0.41171460	      0.98423097	      1.16051032	     28.05076730	     -1.25703428	     -5.69968309	    -40.86661984	     22.38990039	     -5.72258231	     23.35755098	      2.51816885	     -2.00106376	    -23.73251332	     16.07462737	     -2.50980047	      0.72169374	      1.26357327	      2.84556843
      4.17000000	     -0.99106669	      8.87241551	    -92.06793169	      0.41164371	      0.98422045	      1.16246262	     27.99241528	     -1.02112523	     -5.54496628	    -39.66397686	     22.64694236	     -5.54558180	     23.30424103	      2.43516502	     -2.08061237	    -23.65841644	     16.19013003	     -2.49679707	      0.84349142	      1.27259090	      2.94669159
